<svg width="32" height="32" viewBox="0 0 32 32" fill="none" xmlns="http://www.w3.org/2000/svg">
<path d="M17.8438 2.23125C17.5376 1.4875 16.8063 1 16.0001 1C15.1938 1 14.4626 1.4875 14.1563 2.23125L6.65632 20.2312L4.15632 26.2312C3.73132 27.25 4.21257 28.4187 5.23132 28.8437C6.25007 29.2687 7.41882 28.7875 7.84382 27.7687L9.83132 23H22.1626L24.1501 27.7687C24.5751 28.7875 25.7438 29.2687 26.7626 28.8437C27.7813 28.4187 28.2626 27.25 27.8376 26.2312L25.3376 20.2312L17.8376 2.23125H17.8438ZM20.5001 19H11.5001L16.0001 8.2L20.5001 19Z" fill="#041331"/>
<g clip-path="url(#clip0_1038_249)">
<path d="M22.7176 1.88019C23.2954 1.88019 23.8676 1.994 24.4014 2.21512C24.9353 2.43624 25.4203 2.76034 25.8289 3.16892C26.2375 3.5775 26.5616 4.06255 26.7827 4.59638C27.0038 5.13021 27.1176 5.70237 27.1176 6.28019C27.1176 7.44714 26.6541 8.5663 25.8289 9.39146C25.0037 10.2166 23.8846 10.6802 22.7176 10.6802C22.1398 10.6802 21.5677 10.5664 21.0338 10.3453C20.5 10.1241 20.0149 9.80004 19.6064 9.39146C18.7812 8.5663 18.3176 7.44714 18.3176 6.28019C18.3176 5.11324 18.7812 3.99408 19.6064 3.16892C20.4315 2.34376 21.5507 1.88019 22.7176 1.88019ZM22.7176 2.76019C21.7841 2.76019 20.8887 3.13104 20.2286 3.79117C19.5685 4.4513 19.1976 5.34663 19.1976 6.28019C19.1976 7.21375 19.5685 8.10908 20.2286 8.7692C20.8887 9.42933 21.7841 9.80019 22.7176 9.80019C23.6512 9.80019 24.5465 9.42933 25.2066 8.7692C25.8668 8.10908 26.2376 7.21375 26.2376 6.28019C26.2376 5.34663 25.8668 4.4513 25.2066 3.79117C24.5465 3.13104 23.6512 2.76019 22.7176 2.76019ZM22.7176 5.62019C22.8927 5.62019 23.0605 5.68972 23.1843 5.8135C23.3081 5.93727 23.3776 6.10515 23.3776 6.28019C23.3776 6.45523 23.3081 6.6231 23.1843 6.74688C23.0605 6.87065 22.8927 6.94019 22.7176 6.94019C22.5426 6.94019 22.3747 6.87065 22.2509 6.74688C22.1272 6.6231 22.0576 6.45523 22.0576 6.28019C22.0576 6.10515 22.1272 5.93727 22.2509 5.8135C22.3747 5.68972 22.5426 5.62019 22.7176 5.62019ZM20.7376 5.62019C20.9127 5.62019 21.0805 5.68972 21.2043 5.8135C21.3281 5.93727 21.3976 6.10515 21.3976 6.28019C21.3976 6.45523 21.3281 6.6231 21.2043 6.74688C21.0805 6.87065 20.9127 6.94019 20.7376 6.94019C20.5626 6.94019 20.3947 6.87065 20.2709 6.74688C20.1472 6.6231 20.0776 6.45523 20.0776 6.28019C20.0776 6.10515 20.1472 5.93727 20.2709 5.8135C20.3947 5.68972 20.5626 5.62019 20.7376 5.62019ZM24.6976 5.62019C24.8727 5.62019 25.0405 5.68972 25.1643 5.8135C25.2881 5.93727 25.3576 6.10515 25.3576 6.28019C25.3576 6.45523 25.2881 6.6231 25.1643 6.74688C25.0405 6.87065 24.8727 6.94019 24.6976 6.94019C24.5226 6.94019 24.3547 6.87065 24.2309 6.74688C24.1072 6.6231 24.0376 6.45523 24.0376 6.28019C24.0376 6.10515 24.1072 5.93727 24.2309 5.8135C24.3547 5.68972 24.5226 5.62019 24.6976 5.62019Z" fill="#041331"/>
<circle cx="22.7188" cy="6.28125" r="3.53125" fill="white"/>
<circle cx="20.7375" cy="6.28143" r="0.65625" fill="#041331"/>
<circle cx="22.719" cy="6.28143" r="0.65625" fill="#041331"/>
<circle cx="24.697" cy="6.28143" r="0.65625" fill="#041331"/>
</g>
<path d="M9.27988 13.005C9.8577 13.005 10.4299 13.1188 10.9637 13.3399C11.4975 13.5611 11.9826 13.8852 12.3912 14.2937C12.7997 14.7023 13.1238 15.1874 13.345 15.7212C13.5661 16.255 13.6799 16.8272 13.6799 17.405C13.6799 18.572 13.2163 19.6911 12.3912 20.5163C11.566 21.3414 10.4468 21.805 9.27988 21.805C8.70207 21.805 8.12991 21.6912 7.59608 21.4701C7.06224 21.249 6.57719 20.9249 6.16861 20.5163C5.34345 19.6911 4.87988 18.572 4.87988 17.405C4.87988 16.2381 5.34345 15.1189 6.16861 14.2937C6.99377 13.4686 8.11293 13.005 9.27988 13.005ZM9.27988 13.885C8.34632 13.885 7.451 14.2559 6.79087 14.916C6.13074 15.5761 5.75988 16.4714 5.75988 17.405C5.75988 18.3386 6.13074 19.2339 6.79087 19.894C7.451 20.5541 8.34632 20.925 9.27988 20.925C10.2134 20.925 11.1088 20.5541 11.7689 19.894C12.429 19.2339 12.7999 18.3386 12.7999 17.405C12.7999 16.4714 12.429 15.5761 11.7689 14.916C11.1088 14.2559 10.2134 13.885 9.27988 13.885ZM9.27988 16.745C9.45493 16.745 9.6228 16.8145 9.74657 16.9383C9.87035 17.0621 9.93988 17.23 9.93988 17.405C9.93988 17.58 9.87035 17.7479 9.74657 17.8717C9.6228 17.9955 9.45493 18.065 9.27988 18.065C9.10484 18.065 8.93697 17.9955 8.81319 17.8717C8.68942 17.7479 8.61988 17.58 8.61988 17.405C8.61988 17.23 8.68942 17.0621 8.81319 16.9383C8.93697 16.8145 9.10484 16.745 9.27988 16.745ZM7.29988 16.745C7.47493 16.745 7.6428 16.8145 7.76657 16.9383C7.89035 17.0621 7.95988 17.23 7.95988 17.405C7.95988 17.58 7.89035 17.7479 7.76657 17.8717C7.6428 17.9955 7.47493 18.065 7.29988 18.065C7.12484 18.065 6.95697 17.9955 6.83319 17.8717C6.70942 17.7479 6.63988 17.58 6.63988 17.405C6.63988 17.23 6.70942 17.0621 6.83319 16.9383C6.95697 16.8145 7.12484 16.745 7.29988 16.745ZM11.2599 16.745C11.4349 16.745 11.6028 16.8145 11.7266 16.9383C11.8503 17.0621 11.9199 17.23 11.9199 17.405C11.9199 17.58 11.8503 17.7479 11.7266 17.8717C11.6028 17.9955 11.4349 18.065 11.2599 18.065C11.0848 18.065 10.917 17.9955 10.7932 17.8717C10.6694 17.7479 10.5999 17.58 10.5999 17.405C10.5999 17.23 10.6694 17.0621 10.7932 16.9383C10.917 16.8145 11.0848 16.745 11.2599 16.745Z" fill="#041331"/>
<circle cx="9.28125" cy="17.4062" r="3.53125" fill="white"/>
<circle cx="7.30005" cy="17.4062" r="0.65625" fill="#041331"/>
<circle cx="9.28125" cy="17.4062" r="0.65625" fill="#041331"/>
<circle cx="11.2593" cy="17.4062" r="0.65625" fill="#041331"/>
<path d="M23.2174 20.4425C23.7952 20.4425 24.3674 20.5563 24.9012 20.7774C25.435 20.9986 25.9201 21.3227 26.3287 21.7312C26.7372 22.1398 27.0613 22.6249 27.2825 23.1587C27.5036 23.6925 27.6174 24.2647 27.6174 24.8425C27.6174 26.0095 27.1538 27.1286 26.3287 27.9538C25.5035 28.7789 24.3843 29.2425 23.2174 29.2425C22.6396 29.2425 22.0674 29.1287 21.5336 28.9076C20.9997 28.6865 20.5147 28.3624 20.1061 27.9538C19.281 27.1286 18.8174 26.0095 18.8174 24.8425C18.8174 23.6756 19.281 22.5564 20.1061 21.7312C20.9313 20.9061 22.0504 20.4425 23.2174 20.4425ZM23.2174 21.3225C22.2838 21.3225 21.3885 21.6934 20.7284 22.3535C20.0682 23.0136 19.6974 23.9089 19.6974 24.8425C19.6974 25.7761 20.0682 26.6714 20.7284 27.3315C21.3885 27.9916 22.2838 28.3625 23.2174 28.3625C24.1509 28.3625 25.0463 27.9916 25.7064 27.3315C26.3665 26.6714 26.7374 25.7761 26.7374 24.8425C26.7374 23.9089 26.3665 23.0136 25.7064 22.3535C25.0463 21.6934 24.1509 21.3225 23.2174 21.3225ZM23.2174 24.1825C23.3924 24.1825 23.5603 24.252 23.6841 24.3758C23.8078 24.4996 23.8774 24.6675 23.8774 24.8425C23.8774 25.0175 23.8078 25.1854 23.6841 25.3092C23.5603 25.433 23.3924 25.5025 23.2174 25.5025C23.0423 25.5025 22.8745 25.433 22.7507 25.3092C22.6269 25.1854 22.5574 25.0175 22.5574 24.8425C22.5574 24.6675 22.6269 24.4996 22.7507 24.3758C22.8745 24.252 23.0423 24.1825 23.2174 24.1825ZM21.2374 24.1825C21.4124 24.1825 21.5803 24.252 21.7041 24.3758C21.8278 24.4996 21.8974 24.6675 21.8974 24.8425C21.8974 25.0175 21.8278 25.1854 21.7041 25.3092C21.5803 25.433 21.4124 25.5025 21.2374 25.5025C21.0623 25.5025 20.8945 25.433 20.7707 25.3092C20.6469 25.1854 20.5774 25.0175 20.5774 24.8425C20.5774 24.6675 20.6469 24.4996 20.7707 24.3758C20.8945 24.252 21.0623 24.1825 21.2374 24.1825ZM25.1974 24.1825C25.3724 24.1825 25.5403 24.252 25.6641 24.3758C25.7878 24.4996 25.8574 24.6675 25.8574 24.8425C25.8574 25.0175 25.7878 25.1854 25.6641 25.3092C25.5403 25.433 25.3724 25.5025 25.1974 25.5025C25.0223 25.5025 24.8545 25.433 24.7307 25.3092C24.6069 25.1854 24.5374 25.0175 24.5374 24.8425C24.5374 24.6675 24.6069 24.4996 24.7307 24.3758C24.8545 24.252 25.0223 24.1825 25.1974 24.1825Z" fill="#041331"/>
<circle cx="23.2188" cy="24.8439" r="3.53125" fill="white"/>
<circle cx="21.2373" cy="24.8439" r="0.65625" fill="#041331"/>
<circle cx="23.2188" cy="24.8439" r="0.65625" fill="#041331"/>
<circle cx="25.1968" cy="24.8439" r="0.65625" fill="#041331"/>
<defs>
<clipPath id="clip0_1038_249">
<rect width="10.56" height="10.56" fill="white" transform="translate(17.4375 1)"/>
</clipPath>
</defs>
</svg>
