<svg width="32" height="32" viewBox="0 0 32 32" fill="none" xmlns="http://www.w3.org/2000/svg">
<g clip-path="url(#clip0_1042_575)">
<g clip-path="url(#clip1_1042_575)">
<path d="M8.6875 5.5625H8.4375V5.8125V25.8125V26.0625H8.6875H14.6875C20.3506 26.0625 24.9375 21.4756 24.9375 15.8125C24.9375 10.1494 20.3506 5.5625 14.6875 5.5625H8.6875ZM4.9375 5.8125C4.9375 3.74432 6.61932 2.0625 8.6875 2.0625H14.6875C22.2807 2.0625 28.4375 8.21932 28.4375 15.8125C28.4375 23.4057 22.2807 29.5625 14.6875 29.5625H8.6875C6.61932 29.5625 4.9375 27.8807 4.9375 25.8125V5.8125Z" fill="white" stroke="#041331" stroke-width="0.5"/>
</g>
<path d="M4.62445 10.1428C4.81195 8.17408 8.62445 7.17408 9.06196 10.3928C9.06196 10.4553 9.06196 10.8928 9.06196 10.9553C9.12445 10.9553 9.87445 10.9553 9.96821 10.9553C11.0307 11.0803 11.1557 12.6116 9.96821 12.7678C9.56195 12.7678 5.4057 12.7678 4.1449 12.7678C2.4682 12.8616 2.28067 9.64282 4.62445 10.1428Z" fill="white"/>
<path d="M4.20244 13.61C3.91353 13.61 3.62745 13.5531 3.36054 13.4425C3.09362 13.332 2.8511 13.1699 2.64681 12.9656C2.23423 12.5531 2.00244 11.9935 2.00244 11.41C2.00244 10.8265 2.23423 10.267 2.64681 9.85438C3.05939 9.4418 3.61897 9.21001 4.20244 9.21001C4.64244 8.17601 5.65444 7.45001 6.84244 7.45001C8.35164 7.45001 9.58804 8.62041 9.70244 10.1032L9.92244 10.09C10.3892 10.09 10.8369 10.2754 11.1669 10.6055C11.497 10.9356 11.6824 11.3832 11.6824 11.85C11.6824 12.3168 11.497 12.7645 11.1669 13.0945C10.8369 13.4246 10.3892 13.61 9.92244 13.61H4.20244ZM9.92244 10.97H9.04244V10.53C9.04244 9.94654 8.81066 9.38696 8.39808 8.97438C7.9855 8.5618 7.42592 8.33001 6.84244 8.33001C5.74244 8.33001 4.84044 9.13081 4.66884 10.1736C4.52364 10.1208 4.36524 10.09 4.20244 10.09C3.85236 10.09 3.51661 10.2291 3.26906 10.4766C3.02151 10.7242 2.88244 11.0599 2.88244 11.41C2.88244 11.7601 3.02151 12.0958 3.26906 12.3434C3.51661 12.5909 3.85236 12.73 4.20244 12.73H9.92244C10.1558 12.73 10.3797 12.6373 10.5447 12.4723C10.7097 12.3072 10.8024 12.0834 10.8024 11.85C10.8024 11.6166 10.7097 11.3928 10.5447 11.2278C10.3797 11.0627 10.1558 10.97 9.92244 10.97Z" fill="#041331"/>
<g clip-path="url(#clip2_1042_575)">
<path d="M24.0937 19C24.2812 16.875 28.1869 15.9866 28.6244 19.2053C28.6244 19.2678 28.6244 19.7053 28.6244 19.7678C28.6869 19.7678 29.4369 19.7678 29.5307 19.7678C30.5931 19.8928 30.7181 21.4241 29.5307 21.5803C29.1244 21.5803 24.9681 21.5803 23.7073 21.5803C22.0306 21.6741 21.7499 18.5 24.0937 19Z" fill="white"/>
<path d="M23.6399 22.4225C23.351 22.4225 23.065 22.3656 22.798 22.255C22.5311 22.1445 22.2886 21.9824 22.0843 21.7781C21.6717 21.3656 21.4399 20.806 21.4399 20.2225C21.4399 19.639 21.6717 19.0795 22.0843 18.6669C22.4969 18.2543 23.0565 18.0225 23.6399 18.0225C24.0799 16.9885 25.0919 16.2625 26.2799 16.2625C27.7891 16.2625 29.0255 17.4329 29.1399 18.9157L29.3599 18.9025C29.8267 18.9025 30.2744 19.0879 30.6044 19.418C30.9345 19.7481 31.1199 20.1957 31.1199 20.6625C31.1199 21.1293 30.9345 21.577 30.6044 21.907C30.2744 22.2371 29.8267 22.4225 29.3599 22.4225H23.6399ZM29.3599 19.7825H28.4799V19.3425C28.4799 18.759 28.2482 18.1995 27.8356 17.7869C27.423 17.3743 26.8634 17.1425 26.2799 17.1425C25.1799 17.1425 24.2779 17.9433 24.1063 18.9861C23.9611 18.9333 23.8027 18.9025 23.6399 18.9025C23.2899 18.9025 22.9541 19.0416 22.7066 19.2891C22.459 19.5367 22.3199 19.8724 22.3199 20.2225C22.3199 20.5726 22.459 20.9083 22.7066 21.1559C22.9541 21.4034 23.2899 21.5425 23.6399 21.5425H29.3599C29.5933 21.5425 29.8172 21.4498 29.9822 21.2848C30.1472 21.1197 30.2399 20.8959 30.2399 20.6625C30.2399 20.4291 30.1472 20.2053 29.9822 20.0403C29.8172 19.8752 29.5933 19.7825 29.3599 19.7825Z" fill="#041331"/>
</g>
<path d="M6.99945 27.7053C7.18695 25.7366 10.9994 24.7366 11.437 27.9553C11.437 28.0178 11.437 28.4553 11.437 28.5178C11.4995 28.5178 12.2495 28.5178 12.3432 28.5178C13.4057 28.6428 13.5307 30.1741 12.3432 30.3303C11.937 30.3303 7.7807 30.3303 6.5199 30.3303C4.8432 30.4241 4.65567 27.2053 6.99945 27.7053Z" fill="white"/>
<path d="M6.51494 31.235C6.22603 31.235 5.93995 31.1781 5.67304 31.0675C5.40612 30.957 5.1636 30.7949 4.95931 30.5906C4.54673 30.1781 4.31494 29.6185 4.31494 29.035C4.31494 28.4515 4.54673 27.892 4.95931 27.4794C5.37189 27.0668 5.93147 26.835 6.51494 26.835C6.95494 25.801 7.96694 25.075 9.15494 25.075C10.6641 25.075 11.9005 26.2454 12.0149 27.7282L12.2349 27.715C12.7017 27.715 13.1494 27.9004 13.4794 28.2305C13.8095 28.5606 13.9949 29.0082 13.9949 29.475C13.9949 29.9418 13.8095 30.3895 13.4794 30.7195C13.1494 31.0496 12.7017 31.235 12.2349 31.235H6.51494ZM12.2349 28.595H11.3549V28.155C11.3549 27.5715 11.1232 27.012 10.7106 26.5994C10.298 26.1868 9.73842 25.955 9.15494 25.955C8.05494 25.955 7.15294 26.7558 6.98134 27.7986C6.83614 27.7458 6.67774 27.715 6.51494 27.715C6.16486 27.715 5.82911 27.8541 5.58156 28.1016C5.33401 28.3492 5.19494 28.6849 5.19494 29.035C5.19494 29.3851 5.33401 29.7208 5.58156 29.9684C5.82911 30.2159 6.16486 30.355 6.51494 30.355H12.2349C12.4683 30.355 12.6922 30.2623 12.8572 30.0973C13.0222 29.9322 13.1149 29.7084 13.1149 29.475C13.1149 29.2416 13.0222 29.0178 12.8572 28.8528C12.6922 28.6877 12.4683 28.595 12.2349 28.595Z" fill="#041331"/>
</g>
<defs>
<clipPath id="clip0_1042_575">
<rect width="32" height="32" fill="white"/>
</clipPath>
<clipPath id="clip1_1042_575">
<rect width="24" height="32" fill="white" transform="translate(4.6875 -0.1875)"/>
</clipPath>
<clipPath id="clip2_1042_575">
<rect width="10.56" height="10.56" fill="white" transform="translate(21 14.0625)"/>
</clipPath>
</defs>
</svg>
