<svg width="32" height="32" viewBox="0 0 32 32" fill="none" xmlns="http://www.w3.org/2000/svg">
<path d="M11.6322 7.58748C10.376 8.12498 9.70095 8.94998 9.51345 10.05C9.36345 10.9312 9.4697 11.5 9.63845 11.8875C9.81345 12.2812 10.1322 12.6625 10.6822 13.05C11.8822 13.8875 13.701 14.4312 15.9885 15.0812C16.051 15.1 16.1072 15.1187 16.1697 15.1312C18.2135 15.7125 20.6697 16.4187 22.476 17.675C23.4572 18.3562 24.3447 19.2687 24.8885 20.4937C25.4385 21.7312 25.5635 23.1187 25.301 24.6375C24.8447 27.2937 23.0947 29.1187 20.8135 30.0937C18.601 31.0437 15.8697 31.2125 13.0822 30.775H13.0697C11.5697 30.5312 9.15095 29.7062 7.5947 29.175C7.2947 29.0687 7.0197 28.9812 6.7947 28.9062C5.7572 28.55 5.1947 27.4187 5.53845 26.3687C5.8822 25.3187 7.0197 24.7562 8.0697 25.1C8.37595 25.2 8.7072 25.3125 9.06345 25.4375C10.651 25.975 12.5885 26.6375 13.7135 26.8187C16.0135 27.175 17.9322 26.975 19.2447 26.4125C20.501 25.875 21.1697 25.05 21.3635 23.95C21.5135 23.0687 21.4072 22.5 21.2385 22.1125C21.0635 21.7187 20.7447 21.3375 20.1947 20.95C18.9947 20.1125 17.176 19.5687 14.8885 18.9187C14.826 18.9 14.7697 18.8812 14.7072 18.8687C12.6635 18.2875 10.2072 17.5812 8.40095 16.325C7.4197 15.6437 6.5322 14.7312 5.98845 13.5062C5.43845 12.2687 5.31345 10.8812 5.57595 9.36248L7.5447 9.70623L5.5697 9.36873C6.02595 6.71248 7.77595 4.88748 10.0572 3.91248C12.2697 2.96248 15.001 2.79373 17.7885 3.23123C18.601 3.35623 21.0635 3.83123 21.951 4.06873C23.0197 4.34998 23.651 5.44998 23.3697 6.51873C23.0885 7.58748 21.9885 8.21873 20.9197 7.93748C20.2197 7.74998 17.9135 7.29998 17.1635 7.18748C14.8572 6.82498 12.9447 7.03123 11.626 7.59373L11.6322 7.58748Z" fill="#041331"/>
<path d="M23.8277 4.76393C22.6722 5.7788 21.4727 5.85115 20.5528 5.76752L20.5382 5.76619L20.5234 5.76619L20.4894 5.76619C20.0477 5.76613 19.6824 5.76609 19.3604 5.8466C19.006 5.93519 18.7206 6.11447 18.408 6.42706C18.0954 6.73966 17.9161 7.02507 17.8275 7.37944C17.747 7.70148 17.7471 8.06679 17.7471 8.5085L17.7471 8.54249L17.7471 8.55723L17.7485 8.57192C17.8378 9.55491 17.7491 10.8572 16.5224 12.0839C15.2957 13.3106 13.9934 13.3994 13.0104 13.31L12.9957 13.3087L12.981 13.3087L12.947 13.3087C12.5053 13.3086 12.1399 13.3086 11.8179 13.3891C11.4635 13.4777 11.1781 13.6569 10.8655 13.9695C10.5529 14.2821 10.3737 14.5675 10.2851 14.9219C10.2045 15.244 10.2046 15.6093 10.2046 16.051C10.2046 16.0623 10.2046 16.0736 10.2046 16.085V16.0997L10.206 16.1144C10.2896 17.0343 10.2173 18.2338 9.20239 19.3893L7.77237 17.9592C7.95398 17.734 8.06892 17.5098 8.13437 17.248C8.21488 16.926 8.21483 16.5607 8.21478 16.1189C8.21478 16.1077 8.21478 16.0963 8.21478 16.085L8.21478 16.0702L8.21345 16.0555C8.12408 15.0725 8.21283 13.7702 9.43952 12.5435C10.6662 11.3168 11.9685 11.2281 12.9515 11.3175L12.9662 11.3188L12.9809 11.3188L13.0149 11.3188C13.4566 11.3188 13.822 11.3189 14.144 11.2384C14.4984 11.1498 14.7838 10.9705 15.0964 10.6579C15.409 10.3453 15.5882 10.0599 15.6768 9.70554C15.7573 9.3835 15.7573 9.01819 15.7573 8.57648L15.7573 8.54249L15.7573 8.52775L15.7559 8.51306C15.6666 7.53007 15.7553 6.22775 16.982 5.00106C18.2087 3.77437 19.511 3.68562 20.494 3.77498L20.5087 3.77632L20.5234 3.77632L20.5574 3.77632C20.9991 3.77637 21.3644 3.77642 21.6865 3.69591C21.9483 3.63046 22.1724 3.51553 22.3977 3.33391L23.8277 4.76393Z" fill="white" stroke="#041331" stroke-width="0.65"/>
<path d="M26.1402 15.8889C24.9847 16.9038 23.7852 16.9761 22.8653 16.8925L22.8507 16.8912L22.8359 16.8912L22.8019 16.8912C22.3602 16.8911 21.9949 16.8911 21.6729 16.9716C21.3185 17.0602 21.0331 17.2395 20.7205 17.5521C20.4079 17.8647 20.2286 18.1501 20.14 18.5044C20.0595 18.8265 20.0596 19.1918 20.0596 19.6335L20.0596 19.6675L20.0596 19.6822L20.061 19.6969C20.1503 20.6799 20.0616 21.9822 18.8349 23.2089C17.6082 24.4356 16.3059 24.5244 15.3229 24.435L15.3082 24.4337L15.2935 24.4337L15.2595 24.4337C14.8178 24.4336 14.4524 24.4336 14.1304 24.5141C13.776 24.6027 13.4906 24.7819 13.178 25.0945C12.8654 25.4071 12.6862 25.6925 12.5976 26.0469C12.517 26.369 12.5171 26.7343 12.5171 27.176C12.5171 27.1873 12.5171 27.1986 12.5171 27.21V27.2247L12.5185 27.2394C12.6021 28.1593 12.5298 29.3588 11.5149 30.5143L10.0849 29.0842C10.2665 28.859 10.3814 28.6348 10.4469 28.373C10.5274 28.051 10.5273 27.6857 10.5273 27.2439C10.5273 27.2327 10.5273 27.2213 10.5273 27.21L10.5273 27.1952L10.5259 27.1805C10.4366 26.1975 10.5253 24.8952 11.752 23.6685C12.9787 22.4418 14.281 22.3531 15.264 22.4425L15.2787 22.4438L15.2934 22.4438L15.3274 22.4438C15.7691 22.4438 16.1345 22.4439 16.4565 22.3634C16.8109 22.2748 17.0963 22.0955 17.4089 21.7829C17.7215 21.4703 17.9007 21.1849 17.9893 20.8305C18.0698 20.5085 18.0698 20.1432 18.0698 19.7015L18.0698 19.6675L18.0698 19.6527L18.0684 19.6381C17.9791 18.6551 18.0678 17.3528 19.2945 16.1261C20.5212 14.8994 21.8235 14.8106 22.8065 14.9L22.8212 14.9013L22.8359 14.9013L22.8699 14.9013C23.3116 14.9014 23.6769 14.9014 23.999 14.8209C24.2608 14.7555 24.4849 14.6405 24.7102 14.4589L26.1402 15.8889Z" fill="white" stroke="#041331" stroke-width="0.65"/>
</svg>
