<svg width="32" height="32" viewBox="0 0 32 32" fill="none" xmlns="http://www.w3.org/2000/svg">
<g clip-path="url(#clip0_1031_201)">
<path d="M32 15C32 22.1812 24.8375 28 16 28C13.6813 28 11.4813 27.6 9.49377 26.8813C8.75002 27.425 7.53752 28.1688 6.10002 28.7938C4.60002 29.4438 2.79377 30 1.00002 30C0.593772 30 0.231272 29.7563 0.0750224 29.3813C-0.0812276 29.0063 0.00627238 28.5813 0.287522 28.2938L0.306272 28.275C0.325022 28.2563 0.350022 28.2313 0.387522 28.1875C0.456272 28.1125 0.562522 27.9937 0.693772 27.8312C0.950022 27.5187 1.29377 27.0563 1.64377 26.4813C2.26877 25.4438 2.86252 24.0812 2.98127 22.55C1.10627 20.425 2.23891e-05 17.8188 2.23891e-05 15C2.23891e-05 7.81875 7.16252 2 16 2C24.8375 2 32 7.81875 32 15Z" fill="#041331"/>
</g>
<g clip-path="url(#clip1_1031_201)">
<path d="M20.9627 10.3293C18.3585 7.72507 14.4709 7.72507 11.8667 10.3293C9.26248 12.9335 9.26248 17.1544 11.8667 19.7586C14.4709 22.3629 18.3585 22.3629 20.9627 19.7586C21.4836 19.2378 22.3294 19.2378 22.8502 19.7586C23.3711 20.2795 23.3711 21.1253 22.8502 21.6462C19.2043 25.2921 13.6292 25.2921 9.98333 21.6462C6.33743 18.0003 6.33743 12.0918 9.98333 8.44592C13.6292 4.80001 19.2043 4.80001 22.8502 8.44592C23.3711 8.96676 23.3711 9.81261 22.8502 10.3335C22.3294 10.8543 21.4836 10.8543 20.9627 10.3335V10.3293Z" fill="white"/>
</g>
<defs>
<clipPath id="clip0_1031_201">
<rect width="32" height="32" fill="white"/>
</clipPath>
<clipPath id="clip1_1031_201">
<rect width="16.0003" height="21.3337" fill="white" transform="translate(7.25 4.375)"/>
</clipPath>
</defs>
</svg>
