<svg width="32" height="32" viewBox="0 0 32 32" fill="none" xmlns="http://www.w3.org/2000/svg">
<g clip-path="url(#clip0_1042_570)">
<path d="M0.887676 27.9891C1.15059 27.6684 1.50099 27.1966 1.85732 26.6112L1.85792 26.6103C2.49532 25.5522 3.1078 24.1519 3.23052 22.5693L3.2387 22.4639L3.16873 22.3846C1.32891 20.2995 0.250022 17.7505 0.250022 15C0.250022 8.00283 7.24957 2.25 16 2.25C24.7505 2.25 31.75 8.00283 31.75 15C31.75 21.9972 24.7505 27.75 16 27.75C13.71 27.75 11.5388 27.355 9.57879 26.6462L9.45365 26.6009L9.34622 26.6794C8.61677 27.2127 7.42036 27.9471 6.00062 28.5644C4.51626 29.2076 2.74582 29.75 1.00002 29.75C0.695592 29.75 0.423569 29.5678 0.305792 29.2851C0.189199 29.0053 0.253264 28.687 0.465355 28.4695C0.465647 28.4692 0.465939 28.4689 0.466231 28.4686L0.483054 28.4518C0.503267 28.4316 0.532526 28.4023 0.574556 28.3534C0.645724 28.2757 0.754286 28.1542 0.887676 27.9891ZM0.887676 27.9891C0.88748 27.9893 0.887285 27.9895 0.887089 27.9898L0.693772 27.8312L0.888258 27.9883C0.888064 27.9886 0.88787 27.9888 0.887676 27.9891Z" fill="white" stroke="#041331" stroke-width="0.5"/>
</g>
<g clip-path="url(#clip1_1042_570)">
<path d="M20.9627 10.3293C18.3585 7.72507 14.4709 7.72507 11.8667 10.3293C9.26248 12.9335 9.26248 17.1544 11.8667 19.7586C14.4709 22.3629 18.3585 22.3629 20.9627 19.7586C21.4836 19.2378 22.3294 19.2378 22.8502 19.7586C23.3711 20.2795 23.3711 21.1253 22.8502 21.6462C19.2043 25.2921 13.6292 25.2921 9.98333 21.6462C6.33743 18.0003 6.33743 12.0918 9.98333 8.44592C13.6292 4.80001 19.2043 4.80001 22.8502 8.44592C23.3711 8.96676 23.3711 9.81261 22.8502 10.3335C22.3294 10.8543 21.4836 10.8543 20.9627 10.3335V10.3293Z" fill="#041331"/>
</g>
<defs>
<clipPath id="clip0_1042_570">
<rect width="32" height="32" fill="white"/>
</clipPath>
<clipPath id="clip1_1042_570">
<rect width="16.0003" height="21.3337" fill="white" transform="translate(7.25 4.375)"/>
</clipPath>
</defs>
</svg>
