<svg width="32" height="32" viewBox="0 0 32 32" fill="none" xmlns="http://www.w3.org/2000/svg">
<g clip-path="url(#clip0_1042_607)">
<path d="M9.9375 26.375V26.625H10.1875H24.1875C25.1557 26.625 25.9375 27.4068 25.9375 28.375C25.9375 29.3432 25.1557 30.125 24.1875 30.125H10.1875C8.11932 30.125 6.4375 28.4432 6.4375 26.375V6.375C6.4375 4.30682 8.11932 2.625 10.1875 2.625H24.1875C25.1557 2.625 25.9375 3.40682 25.9375 4.375C25.9375 5.34318 25.1557 6.125 24.1875 6.125H10.1875H9.9375V6.375V14.375V14.625H10.1875H20.1875C21.1557 14.625 21.9375 15.4068 21.9375 16.375C21.9375 17.3432 21.1557 18.125 20.1875 18.125H10.1875H9.9375V18.375V26.375Z" fill="white" stroke="#041331" stroke-width="0.5"/>
<g clip-path="url(#clip1_1042_607)">
<path d="M23.3042 2.77259L23.2565 2.73493L21.8982 3.81533L21.8587 3.84677L21.9045 3.86811L23.3755 4.55408L23.1042 5.13589L23.152 5.17355L24.5103 4.09315L24.5498 4.06171L24.504 4.04037L23.0329 3.35439L23.3042 2.77259ZM22.2759 4.97782L22.2891 4.9495L22.2608 4.93629L20.3128 4.0279L25.5642 -0.139572L24.1325 2.93066L24.1193 2.95898L24.1477 2.97219L26.0957 3.88058L20.8443 8.04805L22.2759 4.97782Z" fill="#041331" stroke="white" stroke-width="0.0625"/>
<path d="M23.2812 2.75L23 3.375L24.5 4.0625L23.125 5.15625L23.4063 4.53125L21.9063 3.84375L23.2812 2.75Z" fill="white"/>
</g>
<g clip-path="url(#clip2_1042_607)">
<path d="M8.86674 14.3976L8.81897 14.3599L7.46071 15.4403L7.42119 15.4718L7.46696 15.4931L8.93803 16.1791L8.66673 16.7609L8.71451 16.7985L10.0728 15.7181L10.1123 15.6867L10.0665 15.6654L8.59544 14.9794L8.86674 14.3976ZM7.83843 16.6028L7.85163 16.5745L7.82331 16.5613L5.87526 15.6529L11.1267 11.4854L9.69505 14.5557L9.68184 14.584L9.71016 14.5972L11.6582 15.5056L6.40675 19.673L7.83843 16.6028Z" fill="#041331" stroke="white" stroke-width="0.0625"/>
<path d="M8.84375 14.375L8.5625 15L10.0625 15.6875L8.6875 16.7812L8.96875 16.1562L7.46875 15.4688L8.84375 14.375Z" fill="white"/>
</g>
<g clip-path="url(#clip3_1042_607)">
<path d="M14.8042 26.8976L14.7565 26.8599L13.3982 27.9403L13.3587 27.9718L13.4045 27.9931L14.8755 28.6791L14.6042 29.2609L14.652 29.2985L16.0103 28.2181L16.0498 28.1867L16.004 28.1654L14.5329 27.4794L14.8042 26.8976ZM13.7759 29.1028L13.7891 29.0745L13.7608 29.0613L11.8128 28.1529L17.0642 23.9854L15.6325 27.0557L15.6193 27.084L15.6477 27.0972L17.5957 28.0056L12.3443 32.173L13.7759 29.1028Z" fill="#041331" stroke="white" stroke-width="0.0625"/>
<path d="M14.7812 26.875L14.5 27.5L16 28.1875L14.625 29.2812L14.9063 28.6562L13.4063 27.9688L14.7812 26.875Z" fill="white"/>
</g>
</g>
<defs>
<clipPath id="clip0_1042_607">
<rect width="32" height="32" fill="white"/>
</clipPath>
<clipPath id="clip1_1042_607">
<rect width="10.56" height="10.56" fill="white" transform="translate(20.6504 -3.0625) rotate(25)"/>
</clipPath>
<clipPath id="clip2_1042_607">
<rect width="10.56" height="10.56" fill="white" transform="translate(6.21289 8.5625) rotate(25)"/>
</clipPath>
<clipPath id="clip3_1042_607">
<rect width="10.56" height="10.56" fill="white" transform="translate(12.1504 21.0625) rotate(25)"/>
</clipPath>
</defs>
</svg>
