<svg width="32" height="32" viewBox="0 0 32 32" fill="none" xmlns="http://www.w3.org/2000/svg">
<path d="M15.9333 24C16.4 24 16.7946 23.8387 17.1173 23.516C17.44 23.1933 17.6009 22.7991 17.6 22.3333C17.5991 21.8676 17.4382 21.4729 17.1173 21.1493C16.7964 20.8258 16.4017 20.6649 15.9333 20.6667C15.4648 20.6684 15.0706 20.8298 14.7506 21.1507C14.4306 21.4716 14.2693 21.8658 14.2666 22.3333C14.264 22.8009 14.4253 23.1956 14.7506 23.5173C15.076 23.8391 15.4702 24 15.9333 24ZM14.7333 18.8667H17.2C17.2 18.1333 17.2835 17.5556 17.4506 17.1333C17.6177 16.7111 18.0897 16.1333 18.8666 15.4C19.4444 14.8222 19.9 14.272 20.2333 13.7493C20.5666 13.2267 20.7333 12.5991 20.7333 11.8667C20.7333 10.6222 20.2777 9.66666 19.3666 9C18.4555 8.33333 17.3777 8 16.1333 8C14.8666 8 13.8391 8.33333 13.0506 9C12.2622 9.66666 11.712 10.4667 11.4 11.4L13.6 12.2667C13.7111 11.8667 13.9613 11.4333 14.3506 10.9667C14.74 10.5 15.3342 10.2667 16.1333 10.2667C16.8444 10.2667 17.3777 10.4613 17.7333 10.8507C18.0889 11.24 18.2666 11.6676 18.2666 12.1333C18.2666 12.5778 18.1333 12.9947 17.8666 13.384C17.6 13.7733 17.2666 14.1342 16.8666 14.4667C15.8888 15.3333 15.2888 15.9889 15.0666 16.4333C14.8444 16.8778 14.7333 17.6889 14.7333 18.8667ZM16 29.3333C14.1555 29.3333 12.4222 28.9836 10.8 28.284C9.17774 27.5844 7.76663 26.6342 6.56663 25.4333C5.36663 24.2324 4.41685 22.8213 3.71729 21.2C3.01774 19.5787 2.66752 17.8453 2.66663 16C2.66574 14.1547 3.01596 12.4213 3.71729 10.8C4.41863 9.17866 5.36841 7.76755 6.56663 6.56666C7.76485 5.36577 9.17596 4.416 10.8 3.71733C12.424 3.01866 14.1573 2.66844 16 2.66666C17.8426 2.66489 19.576 3.01511 21.2 3.71733C22.824 4.41955 24.2351 5.36933 25.4333 6.56666C26.6315 7.764 27.5817 9.17511 28.284 10.8C28.9862 12.4249 29.336 14.1582 29.3333 16C29.3306 17.8418 28.9804 19.5751 28.2826 21.2C27.5849 22.8249 26.6351 24.236 25.4333 25.4333C24.2315 26.6307 22.8204 27.5809 21.2 28.284C19.5795 28.9871 17.8462 29.3369 16 29.3333Z" fill="white"/>
</svg>
