<svg width="32" height="32" viewBox="0 0 32 32" fill="none" xmlns="http://www.w3.org/2000/svg">
<path d="M22.0002 4C22.0002 4 23.7957 5.40045 23.5002 6.5C23.2469 7.44287 22.4576 8.19147 21.5002 8C19.0002 7.5 15.5002 7 15.5002 7C15.5002 7 9.82328 6.98224 9.50023 9.5C9.31097 10.975 9.33915 12.071 10.5003 13C13.0002 15 17.5 15 21.0002 17C23.5 18 24.2425 19.2742 25.0002 21.5C25.6295 23.3485 25.2821 24.7109 24.5 26.5C23.6686 28.4019 22.8032 28.9716 21.0002 30C18.6196 31.3579 17.2564 31.1692 14.5002 31C11.2332 30.7994 6.50023 29 6.50023 29C6.50023 29 5.00025 28.5 5.50023 26.5C6.00021 24.5 8.00023 25 8.00023 25L14.5 27C14.5 27 20 27 21.0002 25C21.756 22.9519 21.3768 21.2328 18.5002 20C15 18.5 11.5 18.5 8.5 16.5C5.5 14.5 4.50015 10 6.50024 7C8.50034 4 9.92978 3.69675 13.0002 3C16.4489 2.21743 22.0002 4 22.0002 4Z" fill="white"/>
<path d="M5.57595 9.36248C5.31345 10.8812 5.43845 12.2687 5.98845 13.5062C6.5322 14.7312 7.4197 15.6437 8.40095 16.325C10.2072 17.5812 12.6635 18.2875 14.7072 18.8687C14.7697 18.8812 14.826 18.9 14.8885 18.9187C17.176 19.5687 18.9947 20.1125 20.1947 20.95C20.7447 21.3375 21.0635 21.7187 21.2385 22.1125C21.4072 22.5 21.5135 23.0687 21.3635 23.95C21.1697 25.05 20.501 25.875 19.2447 26.4125C17.9322 26.975 16.0135 27.175 13.7135 26.8187C12.5885 26.6375 10.651 25.975 9.06345 25.4375C8.7072 25.3125 8.37595 25.2 8.0697 25.1C7.0197 24.7562 5.8822 25.3187 5.53845 26.3687C5.1947 27.4187 5.7572 28.55 6.7947 28.9062C7.0197 28.9812 7.2947 29.0687 7.5947 29.175C9.15095 29.7062 11.5697 30.5312 13.0697 30.775H13.0822C15.8697 31.2125 18.601 31.0437 20.8135 30.0937C23.0947 29.1187 24.8447 27.2937 25.301 24.6375C25.5635 23.1187 25.4385 21.7312 24.8885 20.4937C24.3447 19.2687 23.4572 18.3562 22.476 17.675C20.6697 16.4187 18.2135 15.7125 16.1697 15.1312C16.1072 15.1187 16.051 15.1 15.9885 15.0812C13.701 14.4312 11.8822 13.8875 10.6822 13.05C10.1322 12.6625 9.81345 12.2812 9.63845 11.8875C9.4697 11.5 9.36345 10.9312 9.51345 10.05C9.70095 8.94998 10.376 8.12498 11.6322 7.58748L11.626 7.59373C12.9447 7.03123 14.8572 6.82498 17.1635 7.18748C17.9135 7.29998 20.2197 7.74998 20.9197 7.93748C21.9885 8.21873 23.0885 7.58748 23.3697 6.51873C23.651 5.44998 23.0197 4.34998 21.951 4.06873C21.0635 3.83123 18.601 3.35623 17.7885 3.23123C15.001 2.79373 12.2697 2.96248 10.0572 3.91248C7.77595 4.88748 6.02595 6.71248 5.5697 9.36873" stroke="black" stroke-width="0.5"/>
<path d="M24.3892 4.7639C23.2337 5.77877 22.0342 5.85112 21.1144 5.76749L21.0997 5.76616L21.0849 5.76616L21.051 5.76616C20.6092 5.7661 20.2439 5.76606 19.9219 5.84657C19.5675 5.93516 19.2821 6.11444 18.9695 6.42703C18.6569 6.73963 18.4776 7.02504 18.3891 7.37941C18.3085 7.70145 18.3086 8.06676 18.3086 8.50847L18.3086 8.54246L18.3086 8.5572L18.31 8.57188C18.3993 9.55488 18.3106 10.8572 17.0839 12.0839C15.8572 13.3106 14.5549 13.3993 13.5719 13.31L13.5572 13.3086L13.5425 13.3086L13.5085 13.3086C13.0668 13.3086 12.7015 13.3085 12.3794 13.389C12.0251 13.4776 11.7396 13.6569 11.427 13.9695C11.1145 14.2821 10.9352 14.5675 10.8466 14.9219C10.7661 15.2439 10.7661 15.6092 10.7662 16.0509C10.7662 16.0622 10.7662 16.0736 10.7662 16.0849V16.0997L10.7675 16.1144C10.8511 17.0342 10.7788 18.2337 9.76391 19.3892L8.33389 17.9592C8.51551 17.7339 8.63044 17.5098 8.69589 17.248C8.7764 16.9259 8.77636 16.5606 8.77631 16.1189C8.7763 16.1076 8.7763 16.0963 8.7763 16.0849L8.7763 16.0702L8.77497 16.0555C8.68561 15.0725 8.77436 13.7702 10.001 12.5435C11.2277 11.3168 12.5301 11.2281 13.513 11.3174L13.5277 11.3188L13.5425 11.3188L13.5765 11.3188C14.0182 11.3188 14.3835 11.3189 14.7055 11.2383C15.0599 11.1498 15.3453 10.9705 15.6579 10.6579C15.9705 10.3453 16.1498 10.0599 16.2384 9.70551C16.3189 9.38347 16.3188 9.01816 16.3188 8.57645L16.3188 8.54246L16.3188 8.52772L16.3174 8.51303C16.2281 7.53004 16.3168 6.22772 17.5435 5.00103C18.7702 3.77434 20.0725 3.68559 21.0555 3.77495L21.0702 3.77629L21.0849 3.77629L21.1189 3.77629C21.5606 3.77634 21.926 3.77639 22.248 3.69588C22.5098 3.63043 22.7339 3.5155 22.9592 3.33388L24.3892 4.7639Z" fill="white" stroke="black" stroke-width="0.65"/>
<path d="M26.3892 16.7639C25.2337 17.7788 24.0342 17.8511 23.1144 17.7675L23.0997 17.7662L23.0849 17.7662L23.051 17.7662C22.6092 17.7661 22.2439 17.7661 21.9219 17.8466C21.5675 17.9352 21.2821 18.1144 20.9695 18.427C20.6569 18.7396 20.4776 19.025 20.3891 19.3794C20.3085 19.7015 20.3086 20.0668 20.3086 20.5085L20.3086 20.5425L20.3086 20.5572L20.31 20.5719C20.3993 21.5549 20.3106 22.8572 19.0839 24.0839C17.8572 25.3106 16.5549 25.3993 15.5719 25.31L15.5572 25.3086L15.5425 25.3086L15.5085 25.3086C15.0668 25.3086 14.7015 25.3085 14.3794 25.389C14.0251 25.4776 13.7396 25.6569 13.427 25.9695C13.1145 26.2821 12.9352 26.5675 12.8466 26.9219C12.7661 27.2439 12.7661 27.6092 12.7662 28.0509C12.7662 28.0622 12.7662 28.0736 12.7662 28.0849V28.0997L12.7675 28.1144C12.8511 29.0342 12.7788 30.2337 11.7639 31.3892L10.3339 29.9592C10.5155 29.7339 10.6304 29.5098 10.6959 29.248C10.7764 28.9259 10.7764 28.5606 10.7763 28.1189C10.7763 28.1076 10.7763 28.0963 10.7763 28.0849L10.7763 28.0702L10.775 28.0555C10.6856 27.0725 10.7744 25.7702 12.001 24.5435C13.2277 23.3168 14.5301 23.2281 15.513 23.3174L15.5277 23.3188L15.5425 23.3188L15.5765 23.3188C16.0182 23.3188 16.3835 23.3189 16.7055 23.2383C17.0599 23.1498 17.3453 22.9705 17.6579 22.6579C17.9705 22.3453 18.1498 22.0599 18.2384 21.7055C18.3189 21.3835 18.3188 21.0182 18.3188 20.5764L18.3188 20.5425L18.3188 20.5277L18.3174 20.513C18.2281 19.53 18.3168 18.2277 19.5435 17.001C20.7702 15.7743 22.0725 15.6856 23.0555 15.775L23.0702 15.7763L23.0849 15.7763L23.1189 15.7763C23.5606 15.7763 23.926 15.7764 24.248 15.6959C24.5098 15.6304 24.7339 15.5155 24.9592 15.3339L26.3892 16.7639Z" fill="white" stroke="black" stroke-width="0.65"/>
</svg>
